<svg xmlns="http://www.w3.org/2000/svg" viewBox="0 0 496 512" width="48" height="48">
  <path fill="#181717" d="M165.9 397.4c0 2-2.3 3.6-5.2 3.6-3.2.3-5.5-1.3-5.5-3.6 0-2 2.3-3.6 5.2-3.6 3-.3 5.5 1.3 5.5 3.6zm-31.1-4.4c-.7 2 1.3 4.3 4.3 4.9 3 .7 6.2-.3 6.9-2.3.7-2-1.3-4.3-4.3-5-3-.7-6.2.3-6.9 2.4zm44.2-1.7c-2.9.7-4.9 2.9-4.6 5 .3 2 2.9 3.3 5.8 2.6 2.9-.7 4.9-2.9 4.6-5-.3-2.1-2.9-3.3-5.8-2.6zM244 8C109.5 8 0 117.5 0 252c0 107.5 69.8 198.8 166.5 231 12.3 2.3 16.8-5.4 16.8-12v-45.7c-67.7 14.7-81.8-32.6-81.8-32.6-11.1-28.2-27.2-35.6-27.2-35.6-22.3-15.3 1.6-15 1.6-15 24.5 1.7 37.4 25.1 37.4 25.1 21.9 37.4 57.6 26.6 71.6 20.3 2.3-16 8.6-26.6 15.6-32.9-54-6.1-110.8-27-110.8-120.1 0-26.6 9.5-48.3 25.1-65.2-2.6-6.1-11-30.9 2.3-64.3 0 0 20.8-6.7 68.2 25.1 20.1-5.6 41.7-8.3 63-8.3s42.9 2.7 63 8.3c47.4-31.8 68.2-25.1 68.2-25.1 13.3 33.4 4.9 58.2 2.3 64.3 15.6 16.9 25.1 38.6 25.1 65.2 0 93.5-56.8 114-110.8 120.1 8.6 7.6 16.5 22.9 16.5 46.1v68.2c0 6.9 4.6 14.6 16.8 12C426.2 450.8 496 359.5 496 252 496 117.5 386.5 8 252 8z"/>
</svg>
