<svg xmlns="http://www.w3.org/2000/svg" viewBox="0 0 448 512" width="48" height="48">
  <defs>
    <linearGradient id="insta-gradient" x1="0%" y1="0%" x2="100%" y2="100%">
      <stop offset="0%" stop-color="#feda75"/>
      <stop offset="25%" stop-color="#fa7e1e"/>
      <stop offset="50%" stop-color="#d62976"/>
      <stop offset="75%" stop-color="#962fbf"/>
      <stop offset="100%" stop-color="#4f5bd5"/>
    </linearGradient>
  </defs>
  <path fill="url(#insta-gradient)" d="M224,202.66A53.34,53.34,0,1,0,277.34,256,53.38,53.38,0,0,0,224,202.66ZM398.8,80A48,48,0,0,0,368,49.2C341.6,40,224,40,224,40s-117.6,0-144,9.2A48,48,0,0,0,49.2,80C40,106.4,40,224,40,224s0,117.6,9.2,144A48,48,0,0,0,80,398.8C106.4,408,224,408,224,408s117.6,0,144-9.2a48,48,0,0,0,30.8-30.8c9.2-26.4,9.2-144,9.2-144S408,106.4,398.8,80ZM224,338a82,82,0,1,1,82-82A82,82,0,0,1,224,338Zm85.4-148.6a19.1,19.1,0,1,1,19.1-19.1A19.1,19.1,0,0,1,309.4,189.4Z"/>
</svg>
